<svg xmlns="http://www.w3.org/2000/svg" x="0px" y="0px" xmlns:xlink="http://www.w3.org/1999/xlink" viewBox="0 0 350 330" width="350" height="330" preserveAspectRatio="xMidYMid meet">
 <g id="flight">
  <defs>
    <g id="window">
      <path d="M204.25,231.88h-2.05a3.45,3.45,0,0,0-3.43,3.45v2.92a3.45,3.45,0,0,0,3.43,3.45h2.05a3.45,3.45,0,0,0,3.43-3.45v-2.92A3.44,3.44,0,0,0,204.25,231.88Z" fill="none" stroke="#fff" stroke-linecap="round" stroke-linejoin="round" stroke-width="2"/>
    </g>
  </defs>
  <g id="airship">
    <g id="gondola">
      <animateTransform id="startAnimation" attributeName="transform"
                         type="translate"
                          values="0 -6; 0 0; 0 -6;"
                          keyTimes="0; 0.5; 1"
                          keySplines="0 0 0.59 1; 0 0 0.59 1"
                          calcMode="spline"
                          begin="startAnimation.begin"
                          dur="1s"
                          repeatCount="5"/>
      <animateTransform attributeName="transform"
                        type="scale"
                        values="1 0.9; 1 1; 1 0.9"
                        keyTimes="0; 0.5; 1"
                        keySplines="0 0 0.59 1; 0 0 0.59 1"
                        calcMode="spline"
                        dur="1s"
                        additive="sum"
                        begin="startAnimation.begin"
                        repeatCount="5"/>
      <animateTransform attributeName="transform"
                        type="skewX"
                        values="-6; 0; -6"
                        keyTimes="0; 0.5; 1"
                        keySplines="0 0 0.59 1; 0 0 0.59 1"
                        calcMode="spline"
                        dur="1s"
                        additive="sum"
                        begin="startAnimation.begin"
                        repeatCount="5"/>
      <g>
        <animate id="window-animation" attributeType="CSS"
                 attributeName="opacity"
                 calcMode="discrete"
                 values="1; 0;"
                 fill="freeze"
                 begin="startAnimation.begin"
                 repeatCount="5"
                 dur="4s"/>
        <use xlink:href="#window"/>
      </g>
      <path d="M175.44,249.28h48.36a13.27,13.27,0,0,0,13-10.65l3.74-18.32H172.36v25.89A3.09,3.09,0,0,0,175.44,249.28Z" fill="none" stroke="#fff" stroke-linecap="round" stroke-linejoin="round" stroke-width="2"/>
      <path d="M235.79,241.69h-9.22a8.31,8.31,0,0,1-8.28-8.31V220.31" fill="none" stroke="#fff" stroke-linecap="round" stroke-miterlimit="10" stroke-width="2"/>
      <path d="M185.64,231.88h-2.05a3.45,3.45,0,0,0-3.43,3.45v2.92a3.45,3.45,0,0,0,3.43,3.45h2.05a3.45,3.45,0,0,0,3.43-3.45v-2.92A3.45,3.45,0,0,0,185.64,231.88Z" fill="none" stroke="#fff" stroke-linecap="round" stroke-linejoin="round" stroke-width="2"/>
    </g>
    <g>
      <g id="rear-bottom-plumage">
        <animateTransform attributeName="transform"
                          type="translate"
                          values="0 0; 0 4; 0 0"
                          keyTimes="0; 0.5; 1"
                          keySplines="0 0 0.59 1; 0 0 0.59 1"
                          calcMode="spline"
                          dur="1s"
                          repeatCount="5"
                          begin="startAnimation.begin"
                          />
        <path d="M123.23,207.39h9.16a3.29,3.29,0,0,0,3.29-3.3v-5.71a3.29,3.29,0,0,0-3.29-3.3H115.57a1.32,1.32,0,0,0-1.32,1.32v2a9,9,0,0,0,9,9" fill="#068e4d"/>
        <path d="M123.23,207.39h9.16a3.29,3.29,0,0,0,3.29-3.3v-5.71a3.29,3.29,0,0,0-3.29-3.3H115.57a1.32,1.32,0,0,0-1.32,1.32v2A9,9,0,0,0,123.23,207.39Z" fill="none" stroke="#fff" stroke-linecap="round" stroke-linejoin="round" stroke-width="2"/>
      </g>
      <g id="rear-top-plumage">
        <animateTransform attributeName="transform"
                          type="translate"
                          values="0 0; 0 4; 0 0"
                          keyTimes="0; 0.5; 1"
                          keySplines="0 0 0.59 1; 0 0 0.59 1"
                          calcMode="spline"
                          dur="1s"
                          begin="startAnimation.begin"
                          repeatCount="5"/>
        <path d="M123.23,173.34h9.16a3.29,3.29,0,0,1,3.29,3.3v5.71a3.29,3.29,0,0,1-3.29,3.3H115.57a1.32,1.32,0,0,1-1.32-1.32v-2a9,9,0,0,1,9-9" fill="#068e4d"/>
        <path d="M123.23,173.34h9.16a3.29,3.29,0,0,1,3.29,3.3v5.71a3.29,3.29,0,0,1-3.29,3.3H115.57a1.32,1.32,0,0,1-1.32-1.32v-2A9,9,0,0,1,123.23,173.34Z" fill="none" stroke="#fff" stroke-linecap="round" stroke-linejoin="round" stroke-width="2"/>
      </g>
    </g>
      <path d="M205,227.08c43.38,0,74.86-15.55,74.86-35s-31.48-37-74.86-37c-27.94,0-55.36,13.53-73.46,24.87a14.3,14.3,0,0,0,0,24.21c18.09,11.33,45.52,24.87,73.46,24.87" fill="#068e4d"/>
      <path d="M205,227.08c43.38,0,74.86-15.55,74.86-35s-31.48-37-74.86-37c-27.94,0-55.36,13.53-73.46,24.87a14.3,14.3,0,0,0,0,24.21C149.63,213.54,177.06,227.08,205,227.08Z" fill="none" stroke="#fff" stroke-width="2"/>
      <path d="M205,176.09c-28.23,0-56.07,5.76-72.81,10-3.95,1-6,2.66-6.08,4.34A12.93,12.93,0,0,1,132.18,179c16.74-10.5,44.58-24.68,72.81-24.68,44.81,0,73.64,16,73.64,35.75,0,0.12,0,.24,0,0.37-0.37-7.95-29.1-14.37-73.63-14.37" fill="#36e69a"/>
    <g id="move-airship-parth">
      <animateTransform attributeName="transform"
                        type="translate"
                        values="0 3; 0 0; 0 3"
                        keyTimes="0; 0.5; 1"
                        keySplines="0 0 0.59 1; 0 0 0.59 1"
                        calcMode="spline"
                        dur="1s"
                        additive="sum"
                        begin="startAnimation.begin"
                        repeatCount="5"/>
       <path d="M205,178.09c-28.23,0-56.07,5.76-72.81,10-3.95,1-6,2.66-6.08,4.34A12.93,12.93,0,0,1,132.18,179c16.74-10.5,44.58-24.68,72.81-24.68,44.81,0,73.64,16,73.64,35.75,0,0.12,0,.24,0,2.37-0.37-7.95-29.1-14.37-73.63-14.37" fill="#36e69a"/>
    </g>
    <g id="airship-parth" style="transform-origin: center">
      <animateTransform attributeName="transform"
                        type="translate"
                        values="2 3; 0 0; 2 3"
                        keyTimes="0; 0.5; 1"
                        keySplines="0 0 0.59 1; 0 0 0.59 1"
                        calcMode="spline"
                        dur="1s"
                        begin="startAnimation.begin"
                        repeatCount="5"/>
      <animateTransform attributeName="transform"
                        type="skewX"
                        values="-4; 0; -4"
                        keyTimes="0; 0.5; 1"
                        keySplines="0 0 0.59 1; 0 0 0.59 1"
                        calcMode="spline"
                        dur="1s"
                        additive="sum"
                        begin="startAnimation.begin"
                        repeatCount="5"/>
      <path d="M132.18,186.12c16.74-4.27,44.58-10,72.81-10,44.53,0,73.26,6.43,73.61,14.38,0,0.17,0,.34,0,0.51-0.85,7.86-29.45,14.17-73.6,14.17-28.23,0-56.07-5.76-72.81-10-3.79-1-5.79-2.53-6-4.13l0-.51c0.13-1.69,2.15-3.36,6.1-4.37" fill="#25b774"/>
    </g>
    <g>
      <g id="top-plumage">
        <animateTransform attributeName="transform"
                          type="translate"
                          values="0 4; 0 0; 0 4"
                          keyTimes="0; 0.5; 1"
                          keySplines="0 0 0.59 1; 0 0 0.59 1"
                          calcMode="spline"
                          dur="1s"
                          begin="startAnimation.begin"
                          repeatCount="5"/>
        <path d="M123.23,173.34h9.16a3.29,3.29,0,0,1,3.29,3.3v5.71a3.29,3.29,0,0,1-3.29,3.3H115.57a1.32,1.32,0,0,1-1.32-1.32v-2a9,9,0,0,1,9-9" fill="#068e4d"/>
        <path d="M123.23,173.34h9.16a3.29,3.29,0,0,1,3.29,3.3v5.71a3.29,3.29,0,0,1-3.29,3.3H115.57a1.32,1.32,0,0,1-1.32-1.32v-2A9,9,0,0,1,123.23,173.34Z" fill="none" stroke="#fff" stroke-linecap="round" stroke-linejoin="round" stroke-width="2"/>
      </g>
      <g id="bottom-plumage">
        <animateTransform attributeName="transform"
                          type="translate"
                          values="0 4; 0 0; 0 4"
                          keyTimes="0; 0.5; 1"
                          keySplines="0 0 0.59 1; 0 0 0.59 1"
                          calcMode="spline"
                          dur="1s"
                          begin="startAnimation.begin"
                          repeatCount="5"/>
        <path d="M123.23,207.39h9.16a3.29,3.29,0,0,0,3.29-3.3v-5.71a3.29,3.29,0,0,0-3.29-3.3H115.57a1.32,1.32,0,0,0-1.32,1.32v2a9,9,0,0,0,9,9" fill="#068e4d"/>
        <path d="M123.23,207.39h9.16a3.29,3.29,0,0,0,3.29-3.3v-5.71a3.29,3.29,0,0,0-3.29-3.3H115.57a1.32,1.32,0,0,0-1.32,1.32v2A9,9,0,0,0,123.23,207.39Z" fill="none" stroke="#fff" stroke-linecap="round" stroke-linejoin="round" stroke-width="2"/>
      </g>
    </g>
    <g id="thrust">
      <g>
        <line x1="106.25" y1="179.49" x2="84.05" y2="179.49" fill="none" stroke="#fff" stroke-linecap="round" stroke-miterlimit="10" stroke-width="2"/>
        <animate  dur="0.3s"
                  repeatCount="5"
                  attributeName="stroke-dasharray"
                  values="60; 12"
                  begin="startAnimation.begin + 0.1s"/>
      </g>
      <g>
        <line x1="106.25" y1="190.98" x2="68.77" y2="190.98" fill="none" stroke="#fff" stroke-linecap="round" stroke-miterlimit="10" stroke-width="2"/>
        <animate  dur="0.3s"
                  repeatCount="5"
                  attributeName="stroke-dasharray"
                  begin="startAnimation.begin"
                  values="35; 25"/>
      </g>
      <g>
        <line x1="106.25" y1="201.23" x2="84.05" y2="201.23" fill="none" stroke="#fff" stroke-linecap="round" stroke-miterlimit="10" stroke-width="2"/>
        <animate  dur="0.3s"
                  repeatCount="5"
                  attributeName="stroke-dasharray"
                  values="60; 12"
                  begin="startAnimation.begin - 0.1s"/>
      </g>
    </g>
  </g>
  <g id="clouds-left">
    <animate attributeType="CSS"
             attributeName="opacity"
             values="1; 0;"
             dur="1s"
             begin="startAnimation.begin + 1.5s"
             fill="freeze"/>
    <animateTransform attributeName="transform"
                    type="translate"
                    from="300"
                    to="-100"
                    dur="2.5s"
                    begin="startAnimation.begin"/>
    <line x1="68.95" y1="107.8" x2="131.86" y2="107.8" fill="none" stroke="#fff" stroke-linecap="round" stroke-miterlimit="10" stroke-width="2"/>
    <path d="M41.77,97.54H77.06a12.4,12.4,0,1,1,24.8,0h17.93" fill="none" stroke="#fff" stroke-linecap="round" stroke-miterlimit="10" stroke-width="2"/>
  </g>
  <g id="clouds-right">
    <animateTransform attributeName="transform"
                    type="translate"
                    from="300"
                    to="-200"
                    dur="3.5s"
                    begin="startAnimation.begin"/>
    <line x1="258.96" y1="93.19" x2="298.74" y2="93.19" fill="none" stroke="#fff" stroke-linecap="round" stroke-miterlimit="10" stroke-width="2"/>
    <path d="M278.75,82.91H251.39a12.4,12.4,0,1,0-24.8,0H208.65" fill="none" stroke="#fff" stroke-linecap="round" stroke-miterlimit="10" stroke-width="2"/>
    <line x1="287.01" y1="82.91" x2="309.21" y2="82.91" fill="none" stroke="#fff" stroke-linecap="round" stroke-miterlimit="10" stroke-width="2"/>
  </g>
  <g id="mountain">
    <path d="M289.94,327.88H244.88L212.8,296.58a1.89,1.89,0,0,0-2.44,0l-10.2,10.23a1.72,1.72,0,0,1-2.25,0l-19-20.17a2.4,2.4,0,0,0-3.1,0l-26.42,25.64a1.71,1.71,0,0,1-2.25,0l-2.63-2.92a1.71,1.71,0,0,0-2.31,0L124.63,329H80.78" fill="none" stroke="#fff" stroke-linecap="round" stroke-miterlimit="10" stroke-width="2">
    <animate attributeName="d" values="M 289.94 327.88 L 244.88 327.88 L 212.8 296.58 C 212.459 296.292 212.027 296.134 211.58 296.134 C 211.133 296.134 210.701 296.292 210.36 296.58 L 200.16 306.81 C 199.848 307.08 199.448 307.229 199.035 307.229 C 198.622 307.229 198.222 307.08 197.91 306.81 C 191.577 300.087 185.243 293.363 178.91 286.64 C 178.477 286.274 177.927 286.072 177.36 286.072 C 176.793 286.072 176.243 286.274 175.81 286.64 C 167.003 295.187 158.197 303.733 149.39 312.28 C 149.079 312.552 148.679 312.702 148.265 312.702 C 147.851 312.702 147.451 312.552 147.14 312.28 C 146.263 311.307 145.387 310.333 144.51 309.36 C 144.195 309.071 143.782 308.911 143.355 308.911 C 142.928 308.911 142.515 309.071 142.2 309.36 C 136.343 315.907 130.487 322.453 124.63 329 L 80.78 329;
    M 289.94 328 L 271.982 328 L 254.024 328 C 248.038 328 242.052 328 236.066 328 C 230.08 328 224.094 328 218.108 328 L 200.15 328 C 199.29 328 198.59 328 197.9 328 C 191.567 328 185.233 328 178.9 328 C 178.525 328 178.198 328 177.905 328 C 177.612 328 177.353 328 177.114 328 C 176.874 328 176.655 328 176.44 328 C 176.226 328 176.018 328 175.8 328 C 165.033 328 154.267 328 143.5 328 C 143.282 328 143.085 328 142.904 328 C 142.722 328 142.557 328 142.403 328 C 142.249 328 142.106 328 141.97 328 C 141.834 328 141.704 328 141.575 328 C 141.447 328 141.32 328 141.19 328 L 80.78 328
    " dur="0.5s" repeatCount="1" begin="window-animation.begin + 2s" fill="freeze"/>
    </path>
    <!-- <path d="M289.94,328H200.15c-0.86,0-1.56,0-2.25,0h-19c-1.5,0-2.23,0-3.1,0h-32.3c-1.09,0-1.66,0-2.31,0H80.78" fill="none" stroke="#fff" stroke-linecap="round" stroke-miterlimit="10" stroke-width="2"/> -->
  </g>
  <g>
    <animateTransform attributeName="transform"
                         type="translate"
                          values="0 0; 44 -40"
                          keyTimes="0; 1"
                          keySplines="0 0 0.59 1"
                          calcMode="spline"
                          fill="freeze"
                          dur="1s"
                          begin="startAnimation.begin + 2s"/>
    <animateTransform attributeName="transform"
                          calcMode="spline"
                          type="scale"
                          values="1; 6"
                          keyTimes="0; 1"
                          begin="startAnimation.begin + 2s"
                          additive="sum"
                          fill="freeze"
                          dur="1s"
                          keySplines="0.63 0 0.4 1"/>
    <animate attributeType="CSS"
             attributeName="opacity"
             fill="freeze"
             calcMode="spline"
             values="0; 0; 1; 0"
             keyTimes="0; 0.7; 0.8; 1"
             keySplines="0.1, 0.99, 0.33, 0.92; 0.1, 0.99, 0.33, 0.92; 0.02, 0.57, 0.23, 0.57"
             begin="startAnimation.begin"
             dur="3s"/>
    <use xlink:href="#window"/>
  </g>
</svg>
